<svg width="71" height="31" viewBox="0 0 71 31" fill="none" xmlns="http://www.w3.org/2000/svg">
<path fill-rule="evenodd" clip-rule="evenodd" d="M26.2668 2.56299L16.2886 28.0564L10.7517 28.0564L0.773438 2.56299L26.2668 2.56299ZM13.6719 21.8569L18.9076 7.40686L8.11906 7.40686L13.3548 21.8569H13.6719Z" fill="white"/>
<path d="M29.8394 24.7101C28.4332 24.7101 27.217 24.4113 26.191 23.8138C25.1711 23.2103 24.3834 22.3714 23.8282 21.2971C23.2729 20.2167 22.9953 18.9644 22.9953 17.5401C22.9953 16.1036 23.2729 14.8483 23.8282 13.774C24.3834 12.6937 25.1711 11.8547 26.191 11.2572C27.217 10.6537 28.4332 10.3519 29.8394 10.3519C31.2456 10.3519 32.4588 10.6537 33.4787 11.2572C34.5047 11.8547 35.2954 12.6937 35.8506 13.774C36.4059 14.8483 36.6835 16.1036 36.6835 17.5401C36.6835 18.9644 36.4059 20.2167 35.8506 21.2971C35.2954 22.3714 34.5047 23.2103 33.4787 23.8138C32.4588 24.4113 31.2456 24.7101 29.8394 24.7101ZM29.8575 21.7226C30.4973 21.7226 31.0314 21.5415 31.4599 21.1794C31.8884 20.8112 32.2113 20.3103 32.4286 19.6766C32.6519 19.0429 32.7635 18.3216 32.7635 17.5129C32.7635 16.7042 32.6519 15.9829 32.4286 15.3492C32.2113 14.7155 31.8884 14.2146 31.4599 13.8464C31.0314 13.4783 30.4973 13.2942 29.8575 13.2942C29.2117 13.2942 28.6685 13.4783 28.228 13.8464C27.7934 14.2146 27.4645 14.7155 27.2412 15.3492C27.0239 15.9829 26.9153 16.7042 26.9153 17.5129C26.9153 18.3216 27.0239 19.0429 27.2412 19.6766C27.4645 20.3103 27.7934 20.8112 28.228 21.1794C28.6685 21.5415 29.2117 21.7226 29.8575 21.7226ZM43.0478 5.89784V24.4385H39.1912V5.89784H43.0478ZM53.5335 10.533V13.43H45.1594V10.533H53.5335ZM47.0606 7.20148H50.9172V20.1654C50.9172 20.5215 50.9715 20.7992 51.0801 20.9983C51.1888 21.1915 51.3396 21.3272 51.5328 21.4057C51.7319 21.4842 51.9613 21.5234 52.2208 21.5234C52.4019 21.5234 52.5829 21.5083 52.764 21.4781C52.945 21.4419 53.0839 21.4148 53.1804 21.3967L53.787 24.2665C53.5938 24.3268 53.3223 24.3962 52.9722 24.4747C52.6222 24.5592 52.1967 24.6105 51.6957 24.6286C50.7663 24.6648 49.9515 24.5411 49.2514 24.2574C48.5573 23.9738 48.0172 23.5332 47.6309 22.9357C47.2446 22.3382 47.0545 21.5837 47.0606 20.6724V7.20148ZM55.9733 24.4385V22.139L62.7812 13.7106V13.611H56.2087V10.533H67.4254V13.0407L61.0339 21.2609V21.3604H67.6608V24.4385H55.9733Z" fill="white"/>
</svg>
